<?xml version="1.0" encoding="utf-8"?>
<!-- Generator: Adobe Illustrator 27.5.0, SVG Export Plug-In . SVG Version: 6.00 Build 0)  -->
<svg version="1.1" xmlns="http://www.w3.org/2000/svg" xmlns:xlink="http://www.w3.org/1999/xlink" x="0px" y="0px"
	 viewBox="0 0 1200 1200" style="enable-background:new 0 0 1200 1200;" xml:space="preserve">
<g id="Background">
	<rect id="Background_8_" x="0" y="0" style="fill:#F2F2F2;" width="1200" height="1200"/>
</g>
<g id="Graphic_elements">
	<rect y="580.178" style="fill:#BB1616;" width="1200" height="12.415"/>
	<g id="Graphic_elements_6_">
		<g>
			<g>
				<path style="fill:#BB1616;" d="M887.392,478.182c-4.825-38.117-23.612-89.962-85.706-120.487
					c-69.032-33.937-122.801-13.28-155.75,10.024c-22.216,15.711-37.898,34.436-46.622,46.422
					c-8.724-11.986-24.406-30.711-46.622-46.422c-32.95-23.306-86.72-43.958-155.75-10.024
					c-62.094,30.526-80.88,82.37-85.707,120.487c-8.99,71.007,23.313,153.678,78.554,201.043
					c71.266,61.106,202.061,176.166,203.374,177.321c1.759,1.547,3.955,2.32,6.151,2.32s4.392-0.773,6.151-2.32
					c1.313-1.155,132.108-116.215,203.374-177.321C864.08,631.861,896.382,549.189,887.392,478.182z"/>
			</g>
		</g>
		<path style="fill:#FFFFFF;" d="M425.311,592.593c2.63,0,4.975-1.658,5.852-4.137l9.762-28.916l25.865,123.609
			c0.611,2.92,3.239,5.025,6.196,4.934c2.983-0.058,5.503-2.228,6.001-5.169l28.608-168.923l21.486,98.836
			c0.583,2.679,2.855,4.66,5.589,4.871c2.728,0.197,5.282-1.397,6.27-3.957l16.475-42.732l7.46,17.823
			c0.966,2.308,3.224,3.81,5.726,3.81h46.238c2.65,0,5.008-1.682,5.87-4.187l9.822-28.546l25.788,123.241
			c0.602,2.881,3.142,4.936,6.074,4.936c0.04,0,0.081,0,0.121-0.001c2.982-0.058,5.503-2.228,6.001-5.169l28.607-168.923
			l21.486,98.836c0.583,2.679,2.854,4.66,5.588,4.871c2.729,0.197,5.282-1.397,6.27-3.956l16.476-42.733l7.46,17.823
			c0.967,2.308,3.224,3.81,5.726,3.81h108.008c0-0.001,0.001-0.001,0.001-0.002c1.704-4.098,3.308-8.236,4.794-12.413H766.26
			l-11.828-28.257c-0.968-2.31-3.227-3.81-5.726-3.81c-0.029,0-0.06,0-0.089,0c-2.534,0.036-4.791,1.609-5.704,3.974l-14.576,37.805
			l-23.907-109.971c-0.632-2.907-3.223-4.998-6.21-4.888c-2.973,0.07-5.48,2.237-5.977,5.17l-28.493,168.247l-23.685-113.185
			c-0.572-2.734-2.9-4.75-5.688-4.924c-2.782-0.176-5.349,1.534-6.258,4.175l-15.712,45.664h-37.678l-11.828-28.257
			c-0.968-2.31-3.227-3.81-5.726-3.81c-0.029,0-0.059,0-0.089,0c-2.534,0.036-4.791,1.609-5.704,3.975l-14.575,37.803
			l-23.907-109.971c-0.631-2.907-3.192-4.998-6.21-4.888c-2.973,0.07-5.48,2.237-5.976,5.17l-28.493,168.247L448.54,535.312
			c-0.57-2.725-2.883-4.736-5.66-4.923c-2.797-0.197-5.338,1.5-6.267,4.124l-15.689,44.338c0,0-66.648,0.787-97.313,1.15
			c1.502,4.237,3.119,8.437,4.846,12.593C359.067,592.594,425.311,592.593,425.311,592.593z"/>
	</g>
</g>
</svg>
