<?xml version="1.0" encoding="UTF-8"?>
<svg xmlns="http://www.w3.org/2000/svg" xmlns:xlink="http://www.w3.org/1999/xlink" width="300px" height="300px" viewBox="0 0 300 300" version="1.1">
<g id="surface1">
<path style=" stroke:none;fill-rule:nonzero;fill:rgb(100%,40%,27.843137%);fill-opacity:1;" d="M 278.117188 43.652344 C 263.183594 26.789062 242.542969 17.5 220 17.5 C 202.289062 17.5 185.722656 24.707031 172.089844 38.339844 C 162.996094 47.4375 155.492188 59 150 72.285156 C 144.507812 59 137.007812 47.4375 127.910156 38.339844 C 114.277344 24.707031 97.710938 17.503906 80 17.503906 C 57.457031 17.503906 36.816406 26.789062 21.882812 43.65625 C 7.976562 59.359375 0 80.808594 0 102.5 C 0 128.550781 7.882812 154.261719 23.425781 178.917969 C 35.734375 198.445312 52.855469 217.347656 74.3125 235.101562 C 110.667969 265.191406 146.449219 281.390625 147.953125 282.0625 C 149.246094 282.644531 150.753906 282.644531 152.046875 282.0625 C 153.550781 281.390625 189.332031 265.191406 225.6875 235.101562 C 247.144531 217.347656 264.261719 198.445312 276.574219 178.917969 C 292.117188 154.261719 300 128.550781 300 102.5 C 300 80.808594 292.023438 59.359375 278.117188 43.652344 Z M 278.117188 43.652344 "/>
<path style=" stroke:none;fill-rule:nonzero;fill:rgb(89.019608%,32.54902%,21.176471%);fill-opacity:1;" d="M 94.3125 235.101562 C 72.855469 217.347656 55.734375 198.445312 43.425781 178.917969 C 27.882812 154.261719 20 128.550781 20 102.5 C 20 80.808594 27.976562 59.359375 41.882812 43.652344 C 54.445312 29.464844 71.046875 20.644531 89.421875 18.199219 C 86.324219 17.738281 83.179688 17.503906 80 17.503906 C 57.457031 17.503906 36.816406 26.789062 21.882812 43.65625 C 7.976562 59.359375 0 80.808594 0 102.5 C 0 128.550781 7.882812 154.261719 23.425781 178.917969 C 35.734375 198.445312 52.855469 217.347656 74.3125 235.101562 C 110.667969 265.191406 146.449219 281.390625 147.953125 282.0625 C 149.246094 282.644531 150.753906 282.644531 152.046875 282.0625 C 152.449219 281.882812 155.316406 280.585938 160 278.203125 C 147.21875 271.703125 120.921875 257.125 94.3125 235.101562 Z M 94.3125 235.101562 "/>
</g>
</svg>
